M48
; DRILL file {KiCad 9.0.0} date 2025-11-15T09:29:07-0600
; FORMAT={-:-/ absolute / metric / decimal}
; #@! TF.CreationDate,2025-11-15T09:29:07-06:00
; #@! TF.GenerationSoftware,Kicad,Pcbnew,9.0.0
; #@! TF.FileFunction,Plated,1,4,PTH
FMAT,2
METRIC
; #@! TA.AperFunction,Plated,PTH,ViaDrill
T1C0.300
; #@! TA.AperFunction,Plated,PTH,ComponentDrill
T2C1.090
%
G90
G05
T1
X133.35Y-86.258
X133.528Y-76.606
X133.553Y-112.573
X133.579Y-111.15
X133.59Y-83.998
X133.604Y-63.627
X133.623Y-124.186
X133.629Y-64.897
X133.655Y-58.076
X133.68Y-77.8
X133.691Y-100.406
X133.693Y-71.488
X133.706Y-70.053
X133.722Y-118.725
X133.724Y-82.786
X133.742Y-106.934
X133.751Y-57.029
X133.762Y-105.785
X133.793Y-99.111
X133.799Y-117.481
X133.801Y-122.84
X135.357Y-129.718
X135.966Y-95.326
X137.185Y-67.31
X137.211Y-72.898
X139.522Y-76.175
X140.386Y-130.429
X140.589Y-85.56
X140.589Y-92.202
X140.665Y-71.857
X142.27Y-97.13
X142.3Y-98.775
X142.4Y-90.5
X142.4Y-91.85
X142.621Y-66.396
X143.332Y-64.77
X143.408Y-60.02
X143.713Y-63.729
X143.993Y-78.715
X144.729Y-80.366
X145.491Y-63.144
X145.593Y-82.042
X146.558Y-76.683
X147.777Y-76.479
X148.031Y-69.698
X148.209Y-67.462
X148.285Y-71.323
X148.514Y-130.327
X148.996Y-81.28
X149.073Y-76.81
X149.352Y-61.138
X149.86Y-66.065
X150.47Y-77.14
X150.647Y-68.656
X150.825Y-72.695
X150.825Y-82.601
X150.832Y-64.999
X151.13Y-66.777
X151.46Y-60.833
X152.273Y-82.575
X152.578Y-65.71
X152.933Y-69.317
X152.998Y-81.627
X153.162Y-73.203
X153.67Y-66.878
X154.076Y-65.43
X154.178Y-76.683
X154.178Y-82.144
X154.61Y-60.833
X155.143Y-77.318
X155.575Y-81.712
X155.626Y-130.099
X156.413Y-61.036
X157.404Y-77.47
X157.85Y-86.35
X157.94Y-84.023
X158.039Y-61.697
X158.09Y-65.049
X158.445Y-77.47
X159.072Y-112.751
X159.123Y-104.394
X159.131Y-68.199
X159.199Y-114.681
X159.233Y-65.659
X159.233Y-123.215
X160.35Y-81.051
X160.426Y-97.079
X160.553Y-111.938
X161.112Y-79.426
X161.392Y-111.862
X161.417Y-97.155
X162.001Y-94.691
X162.306Y-111.785
X162.535Y-64.389
X162.535Y-66.675
X162.586Y-76.692
X163.106Y-111.785
X163.119Y-97.206
X163.144Y-57.048
X163.195Y-130.454
X163.5Y-62.84
X163.585Y-69.918
X164.186Y-68.707
X164.567Y-113.436
X164.694Y-119.786
X164.973Y-108.763
X165.379Y-65.481
X165.633Y-100.228
X165.938Y-124.765
X165.938Y-126.086
X166.548Y-118.085
X166.802Y-83.871
X166.802Y-107.086
X166.827Y-89.484
X167.03Y-101.6
X168.224Y-120.396
X168.3Y-116.484
X169.672Y-110.185
X170.282Y-88.341
X170.866Y-105.562
X172.796Y-130.683
X173.304Y-124.689
X173.304Y-126.06
X174.777Y-96.088
X175.666Y-98.806
X176.403Y-103.784
X176.962Y-111.277
X176.987Y-115.875
X179.451Y-88.849
X179.73Y-103.581
X180.264Y-94.023
X180.264Y-97.96
X180.315Y-111.735
X180.348Y-114.833
X181.889Y-130.632
X183.388Y-84.988
X183.769Y-103.505
X183.921Y-87.705
X184.107Y-111.709
X184.226Y-114.833
X185.725Y-94.005
X185.953Y-127.33
X186.233Y-121.895
X187.198Y-76.479
X187.427Y-68.097
X187.427Y-73.812
X187.477Y-69.52
X187.503Y-59.334
X187.503Y-62.027
X187.528Y-60.554
X187.528Y-70.79
X187.528Y-72.288
X187.604Y-54.229
X187.604Y-56.261
X187.63Y-57.76
X187.943Y-111.709
X187.96Y-99.898
X188.087Y-64.846
X188.087Y-114.732
X188.493Y-87.681
X189.23Y-76.53
X189.624Y-105.626
X190.322Y-105.181
X190.881Y-112.573
X190.957Y-113.487
X190.983Y-121.59
X193.294Y-107.874
X193.98Y-107.315
X194.031Y-84.48
X194.437Y-121.641
X194.818Y-114.071
X195.148Y-71.984
X195.199Y-70.739
X195.224Y-60.579
X195.25Y-58.039
X195.25Y-59.284
X195.25Y-69.469
X195.326Y-54.229
X195.377Y-65.634
X195.859Y-130.683
X196.24Y-126.009
X196.317Y-115.418
X196.748Y-116.992
X197.612Y-111.811
X197.79Y-112.827
X197.993Y-83.972
X198.247Y-66.015
X198.349Y-60.147
X198.425Y-71.526
X198.45Y-51.359
X199.048Y-124.551
X199.048Y-126.888
X199.517Y-60.147
X199.644Y-71.552
X199.644Y-73.812
X200.025Y-66.65
X200.228Y-61.747
X200.33Y-54.026
X201.143Y-63.856
X201.447Y-115.722
X201.524Y-50.851
X201.955Y-65.888
X202.425Y-70.675
X202.985Y-125.059
X203.048Y-56.083
X203.098Y-59.639
X203.149Y-52.069
X204.038Y-127.051
X204.114Y-52.553
X204.495Y-60.325
X204.597Y-65.786
X204.826Y-113.614
X205.638Y-56.007
X206.337Y-122.951
X206.553Y-61.951
X206.654Y-63.932
X207.162Y-118.085
X207.315Y-51.13
X208.458Y-112.827
X208.788Y-123.546
X209.067Y-129.007
X209.601Y-111.989
X210.185Y-127.203
X210.693Y-85.623
X212.446Y-112.471
X212.446Y-114.96
X212.725Y-125.705
X212.954Y-64.872
X214.3Y-119.964
X215.671Y-104.419
X216.459Y-96.825
X218.694Y-78.816
X218.719Y-65.532
X219.659Y-129.057
T2
X221.95Y-52.5
X221.95Y-56.69
X221.95Y-60.88
X221.95Y-65.07
X221.95Y-69.26
X221.95Y-73.45
X221.95Y-107.5
X221.95Y-111.69
X221.95Y-115.88
X221.95Y-120.07
X221.95Y-124.26
X221.95Y-128.45
X228.3Y-52.5
X228.3Y-56.69
X228.3Y-60.88
X228.3Y-65.07
X228.3Y-69.26
X228.3Y-73.45
X228.3Y-107.5
X228.3Y-111.69
X228.3Y-115.88
X228.3Y-120.07
X228.3Y-124.26
X228.3Y-128.45
M30
