%TF.GenerationSoftware,KiCad,Pcbnew,9.0.0*%
%TF.CreationDate,2025-11-15T09:29:09-06:00*%
%TF.ProjectId,HV ECU,48562045-4355-42e6-9b69-6361645f7063,rev?*%
%TF.SameCoordinates,Original*%
%TF.FileFunction,Soldermask,Top*%
%TF.FilePolarity,Negative*%
%FSLAX46Y46*%
G04 Gerber Fmt 4.6, Leading zero omitted, Abs format (unit mm)*
G04 Created by KiCad (PCBNEW 9.0.0) date 2025-11-15 09:29:09*
%MOMM*%
%LPD*%
G01*
G04 APERTURE LIST*
G04 Aperture macros list*
%AMRoundRect*
0 Rectangle with rounded corners*
0 $1 Rounding radius*
0 $2 $3 $4 $5 $6 $7 $8 $9 X,Y pos of 4 corners*
0 Add a 4 corners polygon primitive as box body*
4,1,4,$2,$3,$4,$5,$6,$7,$8,$9,$2,$3,0*
0 Add four circle primitives for the rounded corners*
1,1,$1+$1,$2,$3*
1,1,$1+$1,$4,$5*
1,1,$1+$1,$6,$7*
1,1,$1+$1,$8,$9*
0 Add four rect primitives between the rounded corners*
20,1,$1+$1,$2,$3,$4,$5,0*
20,1,$1+$1,$4,$5,$6,$7,0*
20,1,$1+$1,$6,$7,$8,$9,0*
20,1,$1+$1,$8,$9,$2,$3,0*%
%AMFreePoly0*
4,1,23,0.500000,-0.750000,0.000000,-0.750000,0.000000,-0.745722,-0.065263,-0.745722,-0.191342,-0.711940,-0.304381,-0.646677,-0.396677,-0.554381,-0.461940,-0.441342,-0.495722,-0.315263,-0.495722,-0.250000,-0.500000,-0.250000,-0.500000,0.250000,-0.495722,0.250000,-0.495722,0.315263,-0.461940,0.441342,-0.396677,0.554381,-0.304381,0.646677,-0.191342,0.711940,-0.065263,0.745722,0.000000,0.745722,
0.000000,0.750000,0.500000,0.750000,0.500000,-0.750000,0.500000,-0.750000,$1*%
%AMFreePoly1*
4,1,23,0.000000,0.745722,0.065263,0.745722,0.191342,0.711940,0.304381,0.646677,0.396677,0.554381,0.461940,0.441342,0.495722,0.315263,0.495722,0.250000,0.500000,0.250000,0.500000,-0.250000,0.495722,-0.250000,0.495722,-0.315263,0.461940,-0.441342,0.396677,-0.554381,0.304381,-0.646677,0.191342,-0.711940,0.065263,-0.745722,0.000000,-0.745722,0.000000,-0.750000,-0.500000,-0.750000,
-0.500000,0.750000,0.000000,0.750000,0.000000,0.745722,0.000000,0.745722,$1*%
G04 Aperture macros list end*
%ADD10R,0.300000X0.300000*%
%ADD11RoundRect,0.140000X-0.140000X-0.170000X0.140000X-0.170000X0.140000X0.170000X-0.140000X0.170000X0*%
%ADD12RoundRect,0.140000X0.170000X-0.140000X0.170000X0.140000X-0.170000X0.140000X-0.170000X-0.140000X0*%
%ADD13RoundRect,0.150000X-0.825000X-0.150000X0.825000X-0.150000X0.825000X0.150000X-0.825000X0.150000X0*%
%ADD14RoundRect,0.250000X1.100000X-0.412500X1.100000X0.412500X-1.100000X0.412500X-1.100000X-0.412500X0*%
%ADD15R,1.475000X0.450000*%
%ADD16R,2.460000X3.550000*%
%ADD17RoundRect,0.250000X0.250000X0.475000X-0.250000X0.475000X-0.250000X-0.475000X0.250000X-0.475000X0*%
%ADD18RoundRect,0.250000X-0.475000X0.337500X-0.475000X-0.337500X0.475000X-0.337500X0.475000X0.337500X0*%
%ADD19RoundRect,0.140000X0.140000X0.170000X-0.140000X0.170000X-0.140000X-0.170000X0.140000X-0.170000X0*%
%ADD20RoundRect,0.225000X-0.250000X0.225000X-0.250000X-0.225000X0.250000X-0.225000X0.250000X0.225000X0*%
%ADD21RoundRect,0.250000X-0.450000X0.350000X-0.450000X-0.350000X0.450000X-0.350000X0.450000X0.350000X0*%
%ADD22RoundRect,0.200000X0.275000X-0.200000X0.275000X0.200000X-0.275000X0.200000X-0.275000X-0.200000X0*%
%ADD23RoundRect,0.150000X0.512500X0.150000X-0.512500X0.150000X-0.512500X-0.150000X0.512500X-0.150000X0*%
%ADD24R,1.701800X1.879600*%
%ADD25R,1.422400X0.558800*%
%ADD26R,1.800000X1.000000*%
%ADD27RoundRect,0.160000X0.197500X0.160000X-0.197500X0.160000X-0.197500X-0.160000X0.197500X-0.160000X0*%
%ADD28RoundRect,0.140000X-0.170000X0.140000X-0.170000X-0.140000X0.170000X-0.140000X0.170000X0.140000X0*%
%ADD29RoundRect,0.250000X-0.412500X-1.100000X0.412500X-1.100000X0.412500X1.100000X-0.412500X1.100000X0*%
%ADD30RoundRect,0.200000X0.200000X0.275000X-0.200000X0.275000X-0.200000X-0.275000X0.200000X-0.275000X0*%
%ADD31R,1.879600X1.701800*%
%ADD32RoundRect,0.250000X0.475000X-0.337500X0.475000X0.337500X-0.475000X0.337500X-0.475000X-0.337500X0*%
%ADD33R,1.525000X0.650000*%
%ADD34RoundRect,0.250000X0.450000X-0.350000X0.450000X0.350000X-0.450000X0.350000X-0.450000X-0.350000X0*%
%ADD35RoundRect,0.250000X0.337500X0.475000X-0.337500X0.475000X-0.337500X-0.475000X0.337500X-0.475000X0*%
%ADD36RoundRect,0.075000X-0.075000X0.725000X-0.075000X-0.725000X0.075000X-0.725000X0.075000X0.725000X0*%
%ADD37RoundRect,0.075000X-0.725000X0.075000X-0.725000X-0.075000X0.725000X-0.075000X0.725000X0.075000X0*%
%ADD38RoundRect,0.250000X-1.100000X0.412500X-1.100000X-0.412500X1.100000X-0.412500X1.100000X0.412500X0*%
%ADD39R,0.500000X1.100000*%
%ADD40FreePoly0,180.000000*%
%ADD41FreePoly1,180.000000*%
%ADD42R,4.000000X1.000000*%
%ADD43RoundRect,0.250000X-1.000000X-0.650000X1.000000X-0.650000X1.000000X0.650000X-1.000000X0.650000X0*%
%ADD44R,1.550000X0.800000*%
%ADD45RoundRect,0.250000X-0.475000X0.250000X-0.475000X-0.250000X0.475000X-0.250000X0.475000X0.250000X0*%
%ADD46C,1.635000*%
%ADD47RoundRect,0.225000X0.250000X-0.225000X0.250000X0.225000X-0.250000X0.225000X-0.250000X-0.225000X0*%
%ADD48RoundRect,0.250000X0.475000X-0.250000X0.475000X0.250000X-0.475000X0.250000X-0.475000X-0.250000X0*%
%ADD49RoundRect,0.200000X-0.275000X0.200000X-0.275000X-0.200000X0.275000X-0.200000X0.275000X0.200000X0*%
%ADD50R,2.400000X1.500000*%
%ADD51RoundRect,0.160000X-0.160000X0.197500X-0.160000X-0.197500X0.160000X-0.197500X0.160000X0.197500X0*%
%ADD52R,4.500000X2.000000*%
%ADD53FreePoly0,90.000000*%
%ADD54FreePoly1,90.000000*%
%ADD55RoundRect,0.375000X0.625000X0.375000X-0.625000X0.375000X-0.625000X-0.375000X0.625000X-0.375000X0*%
%ADD56RoundRect,0.500000X0.500000X1.400000X-0.500000X1.400000X-0.500000X-1.400000X0.500000X-1.400000X0*%
%ADD57RoundRect,0.218750X-0.256250X0.218750X-0.256250X-0.218750X0.256250X-0.218750X0.256250X0.218750X0*%
%ADD58RoundRect,0.200000X-0.200000X-0.275000X0.200000X-0.275000X0.200000X0.275000X-0.200000X0.275000X0*%
%ADD59RoundRect,0.250000X-0.650000X1.000000X-0.650000X-1.000000X0.650000X-1.000000X0.650000X1.000000X0*%
G04 APERTURE END LIST*
%TO.C,JP2*%
G36*
X211503400Y-118656800D02*
G01*
X211203400Y-118656800D01*
X211203400Y-117156800D01*
X211503400Y-117156800D01*
X211503400Y-118656800D01*
G37*
%TO.C,JP1*%
G36*
X209155600Y-123060600D02*
G01*
X210655600Y-123060600D01*
X210655600Y-122760600D01*
X209155600Y-122760600D01*
X209155600Y-123060600D01*
G37*
%TD*%
D10*
%TO.C,D16*%
X134981200Y-118496600D03*
X134281200Y-118496600D03*
X134981200Y-117796600D03*
X134281200Y-117796600D03*
%TD*%
D11*
%TO.C,C5*%
X203913800Y-56083200D03*
X204873800Y-56083200D03*
%TD*%
D12*
%TO.C,C6*%
X204724000Y-53538000D03*
X204724000Y-52578000D03*
%TD*%
D13*
%TO.C,U3*%
X201387400Y-123763800D03*
X201387400Y-125033800D03*
X201387400Y-126303800D03*
X201387400Y-127573800D03*
X206337400Y-127573800D03*
X206337400Y-126303800D03*
X206337400Y-125033800D03*
X206337400Y-123763800D03*
%TD*%
D14*
%TO.C,C55*%
X184107400Y-110676400D03*
X184107400Y-107551400D03*
%TD*%
D15*
%TO.C,IC4*%
X163795800Y-104907900D03*
X163795800Y-105557900D03*
X163795800Y-106207900D03*
X163795800Y-106857900D03*
X163795800Y-107507900D03*
X163795800Y-108157900D03*
X163795800Y-108807900D03*
X163795800Y-109457900D03*
X169671800Y-109457900D03*
X169671800Y-108807900D03*
X169671800Y-108157900D03*
X169671800Y-107507900D03*
X169671800Y-106857900D03*
X169671800Y-106207900D03*
X169671800Y-105557900D03*
X169671800Y-104907900D03*
D16*
X166733800Y-107182900D03*
%TD*%
D14*
%TO.C,C42*%
X166827200Y-88303500D03*
X166827200Y-85178500D03*
%TD*%
D10*
%TO.C,D8*%
X134862800Y-64643000D03*
X134162800Y-64643000D03*
X134862800Y-63943000D03*
X134162800Y-63943000D03*
%TD*%
D12*
%TO.C,C23*%
X162512000Y-65969000D03*
X162512000Y-65009000D03*
%TD*%
D17*
%TO.C,C44*%
X142441000Y-76217000D03*
X140541000Y-76217000D03*
%TD*%
D10*
%TO.C,D15*%
X134981200Y-111968800D03*
X134281200Y-111968800D03*
X134981200Y-111268800D03*
X134281200Y-111268800D03*
%TD*%
D18*
%TO.C,C38*%
X190500000Y-91973400D03*
X190500000Y-94048400D03*
%TD*%
D19*
%TO.C,R4*%
X189202000Y-57759600D03*
X188242000Y-57759600D03*
%TD*%
D18*
%TO.C,C37*%
X193040000Y-91991000D03*
X193040000Y-94066000D03*
%TD*%
D11*
%TO.C,R13*%
X188165800Y-73812400D03*
X189125800Y-73812400D03*
%TD*%
D10*
%TO.C,D10*%
X134868400Y-77489800D03*
X134168400Y-77489800D03*
X134868400Y-76789800D03*
X134168400Y-76789800D03*
%TD*%
D19*
%TO.C,C29*%
X210766600Y-129006600D03*
X209806600Y-129006600D03*
%TD*%
D11*
%TO.C,R11*%
X188140400Y-70789800D03*
X189100400Y-70789800D03*
%TD*%
D20*
%TO.C,R16*%
X203073000Y-72491000D03*
X203073000Y-74041000D03*
%TD*%
D21*
%TO.C,R31*%
X159105600Y-109762000D03*
X159105600Y-111762000D03*
%TD*%
D11*
%TO.C,R3*%
X188270000Y-54229000D03*
X189230000Y-54229000D03*
%TD*%
%TO.C,R1*%
X188191200Y-62026800D03*
X189151200Y-62026800D03*
%TD*%
%TO.C,C13*%
X203129000Y-75819000D03*
X204089000Y-75819000D03*
%TD*%
D12*
%TO.C,C14*%
X204597000Y-67381000D03*
X204597000Y-66421000D03*
%TD*%
D22*
%TO.C,R17*%
X141000000Y-98775000D03*
X141000000Y-97125000D03*
%TD*%
D11*
%TO.C,R9*%
X188115000Y-65659000D03*
X189075000Y-65659000D03*
%TD*%
D23*
%TO.C,U7*%
X194056000Y-83820000D03*
X194056000Y-82870000D03*
X194056000Y-81920000D03*
X191781000Y-81920000D03*
X191781000Y-82870000D03*
X191781000Y-83820000D03*
%TD*%
D24*
%TO.C,U4*%
X215112600Y-92633800D03*
X215112600Y-96824800D03*
%TD*%
D25*
%TO.C,D6*%
X215544400Y-113017300D03*
X215544400Y-114922300D03*
X217474800Y-113969800D03*
%TD*%
D19*
%TO.C,C8*%
X207236000Y-56007000D03*
X206276000Y-56007000D03*
%TD*%
D18*
%TO.C,C57*%
X173591800Y-115230800D03*
X173591800Y-117305800D03*
%TD*%
D11*
%TO.C,C20*%
X151448000Y-61580000D03*
X152408000Y-61580000D03*
%TD*%
D26*
%TO.C,Y1*%
X161623000Y-58699000D03*
X161623000Y-61199000D03*
%TD*%
D21*
%TO.C,R37*%
X159232600Y-120176000D03*
X159232600Y-122176000D03*
%TD*%
D12*
%TO.C,C22*%
X160353000Y-80447000D03*
X160353000Y-79487000D03*
%TD*%
D19*
%TO.C,C16*%
X207405000Y-69850000D03*
X206445000Y-69850000D03*
%TD*%
D27*
%TO.C,R18*%
X215735500Y-62941200D03*
X214540500Y-62941200D03*
%TD*%
D28*
%TO.C,C31*%
X199009000Y-125313200D03*
X199009000Y-126273200D03*
%TD*%
D29*
%TO.C,C39*%
X181406000Y-94023000D03*
X184531000Y-94023000D03*
%TD*%
D21*
%TO.C,R33*%
X187325000Y-87689000D03*
X187325000Y-89689000D03*
%TD*%
D12*
%TO.C,C26*%
X145494000Y-62540000D03*
X145494000Y-61580000D03*
%TD*%
%TO.C,C10*%
X199644000Y-73223000D03*
X199644000Y-72263000D03*
%TD*%
D11*
%TO.C,R5*%
X188242000Y-59334400D03*
X189202000Y-59334400D03*
%TD*%
D30*
%TO.C,R24*%
X215201000Y-110896400D03*
X213551000Y-110896400D03*
%TD*%
D31*
%TO.C,U1*%
X204939900Y-85598000D03*
X209130900Y-85598000D03*
%TD*%
D32*
%TO.C,C35*%
X170281600Y-87270500D03*
X170281600Y-85195500D03*
%TD*%
D28*
%TO.C,C15*%
X204597000Y-72390000D03*
X204597000Y-73350000D03*
%TD*%
D33*
%TO.C,IC1*%
X191045000Y-52959000D03*
X191045000Y-54229000D03*
X191045000Y-55499000D03*
X191045000Y-56769000D03*
X191045000Y-58039000D03*
X191045000Y-59309000D03*
X191045000Y-60579000D03*
X191045000Y-61849000D03*
X196469000Y-61849000D03*
X196469000Y-60579000D03*
X196469000Y-59309000D03*
X196469000Y-58039000D03*
X196469000Y-56769000D03*
X196469000Y-55499000D03*
X196469000Y-54229000D03*
X196469000Y-52959000D03*
%TD*%
D32*
%TO.C,C56*%
X176970000Y-119130700D03*
X176970000Y-117055700D03*
%TD*%
D12*
%TO.C,C2*%
X199517000Y-61793000D03*
X199517000Y-60833000D03*
%TD*%
D34*
%TO.C,R30*%
X159105600Y-107510800D03*
X159105600Y-105510800D03*
%TD*%
D35*
%TO.C,C36*%
X193929000Y-86233000D03*
X191854000Y-86233000D03*
%TD*%
D36*
%TO.C,U9*%
X158932000Y-63517000D03*
X158432000Y-63517000D03*
X157932000Y-63517000D03*
X157432000Y-63517000D03*
X156932000Y-63517000D03*
X156432000Y-63517000D03*
X155932000Y-63517000D03*
X155432000Y-63517000D03*
X154932000Y-63517000D03*
X154432000Y-63517000D03*
X153932000Y-63517000D03*
X153432000Y-63517000D03*
X152932000Y-63517000D03*
X152432000Y-63517000D03*
X151932000Y-63517000D03*
X151432000Y-63517000D03*
X150932000Y-63517000D03*
X150432000Y-63517000D03*
X149932000Y-63517000D03*
X149432000Y-63517000D03*
X148932000Y-63517000D03*
X148432000Y-63517000D03*
X147932000Y-63517000D03*
X147432000Y-63517000D03*
X146932000Y-63517000D03*
D37*
X145257000Y-65192000D03*
X145257000Y-65692000D03*
X145257000Y-66192000D03*
X145257000Y-66692000D03*
X145257000Y-67192000D03*
X145257000Y-67692000D03*
X145257000Y-68192000D03*
X145257000Y-68692000D03*
X145257000Y-69192000D03*
X145257000Y-69692000D03*
X145257000Y-70192000D03*
X145257000Y-70692000D03*
X145257000Y-71192000D03*
X145257000Y-71692000D03*
X145257000Y-72192000D03*
X145257000Y-72692000D03*
X145257000Y-73192000D03*
X145257000Y-73692000D03*
X145257000Y-74192000D03*
X145257000Y-74692000D03*
X145257000Y-75192000D03*
X145257000Y-75692000D03*
X145257000Y-76192000D03*
X145257000Y-76692000D03*
X145257000Y-77192000D03*
D36*
X146932000Y-78867000D03*
X147432000Y-78867000D03*
X147932000Y-78867000D03*
X148432000Y-78867000D03*
X148932000Y-78867000D03*
X149432000Y-78867000D03*
X149932000Y-78867000D03*
X150432000Y-78867000D03*
X150932000Y-78867000D03*
X151432000Y-78867000D03*
X151932000Y-78867000D03*
X152432000Y-78867000D03*
X152932000Y-78867000D03*
X153432000Y-78867000D03*
X153932000Y-78867000D03*
X154432000Y-78867000D03*
X154932000Y-78867000D03*
X155432000Y-78867000D03*
X155932000Y-78867000D03*
X156432000Y-78867000D03*
X156932000Y-78867000D03*
X157432000Y-78867000D03*
X157932000Y-78867000D03*
X158432000Y-78867000D03*
X158932000Y-78867000D03*
D37*
X160607000Y-77192000D03*
X160607000Y-76692000D03*
X160607000Y-76192000D03*
X160607000Y-75692000D03*
X160607000Y-75192000D03*
X160607000Y-74692000D03*
X160607000Y-74192000D03*
X160607000Y-73692000D03*
X160607000Y-73192000D03*
X160607000Y-72692000D03*
X160607000Y-72192000D03*
X160607000Y-71692000D03*
X160607000Y-71192000D03*
X160607000Y-70692000D03*
X160607000Y-70192000D03*
X160607000Y-69692000D03*
X160607000Y-69192000D03*
X160607000Y-68692000D03*
X160607000Y-68192000D03*
X160607000Y-67692000D03*
X160607000Y-67192000D03*
X160607000Y-66692000D03*
X160607000Y-66192000D03*
X160607000Y-65692000D03*
X160607000Y-65192000D03*
%TD*%
D19*
%TO.C,C25*%
X157376000Y-61707000D03*
X156416000Y-61707000D03*
%TD*%
D38*
%TO.C,C60*%
X184209000Y-115971900D03*
X184209000Y-119096900D03*
%TD*%
D22*
%TO.C,R26*%
X212318600Y-123952000D03*
X212318600Y-122302000D03*
%TD*%
D39*
%TO.C,D3*%
X206629000Y-67317000D03*
X206629000Y-65017000D03*
%TD*%
D40*
%TO.C,JP2*%
X212003400Y-117906800D03*
D41*
X210703400Y-117906800D03*
%TD*%
D12*
%TO.C,C4*%
X198374000Y-52959000D03*
X198374000Y-51999000D03*
%TD*%
D10*
%TO.C,D17*%
X135032000Y-124033800D03*
X134332000Y-124033800D03*
X135032000Y-123333800D03*
X134332000Y-123333800D03*
%TD*%
D42*
%TO.C,J3*%
X133300000Y-87350000D03*
X133300000Y-89350000D03*
X133300000Y-91350000D03*
X133300000Y-93350000D03*
X133300000Y-95350000D03*
%TD*%
D43*
%TO.C,D23*%
X205042000Y-81280000D03*
X209042000Y-81280000D03*
%TD*%
D19*
%TO.C,C28*%
X208760000Y-118059200D03*
X207800000Y-118059200D03*
%TD*%
%TO.C,R14*%
X189125800Y-72288400D03*
X188165800Y-72288400D03*
%TD*%
D28*
%TO.C,C7*%
X204470000Y-58702000D03*
X204470000Y-59662000D03*
%TD*%
D44*
%TO.C,T1*%
X209112000Y-53467000D03*
X209112000Y-56007000D03*
X209112000Y-58547000D03*
X217862000Y-58547000D03*
X217862000Y-56007000D03*
X217862000Y-53467000D03*
%TD*%
D19*
%TO.C,C43*%
X149375000Y-61834000D03*
X148415000Y-61834000D03*
%TD*%
%TO.C,R6*%
X189174000Y-60579000D03*
X188214000Y-60579000D03*
%TD*%
D45*
%TO.C,C21*%
X157940000Y-81270000D03*
X157940000Y-83170000D03*
%TD*%
D19*
%TO.C,R2*%
X189202000Y-56311800D03*
X188242000Y-56311800D03*
%TD*%
D12*
%TO.C,C24*%
X144732000Y-79685000D03*
X144732000Y-78725000D03*
%TD*%
D32*
%TO.C,C41*%
X196723000Y-83990000D03*
X196723000Y-81915000D03*
%TD*%
D45*
%TO.C,C11*%
X200025000Y-63886000D03*
X200025000Y-65786000D03*
%TD*%
D46*
%TO.C,J4*%
X221950000Y-73450000D03*
X221950000Y-69260000D03*
X221950000Y-65070000D03*
X221950000Y-60880000D03*
X221950000Y-56690000D03*
X221950000Y-52500000D03*
X228300000Y-52500000D03*
X228300000Y-56690000D03*
X228300000Y-60880000D03*
X228300000Y-65070000D03*
X228300000Y-69260000D03*
X228300000Y-73450000D03*
X228300000Y-107500000D03*
X228300000Y-111690000D03*
X228300000Y-115880000D03*
X228300000Y-120070000D03*
X228300000Y-124260000D03*
X228300000Y-128450000D03*
X221950000Y-128450000D03*
X221950000Y-124260000D03*
X221950000Y-120070000D03*
X221950000Y-115880000D03*
X221950000Y-111690000D03*
X221950000Y-107500000D03*
%TD*%
D47*
%TO.C,R15*%
X203073000Y-67463000D03*
X203073000Y-65913000D03*
%TD*%
D29*
%TO.C,C40*%
X181406000Y-97960000D03*
X184531000Y-97960000D03*
%TD*%
D10*
%TO.C,D14*%
X134950200Y-106807000D03*
X134250200Y-106807000D03*
X134950200Y-106107000D03*
X134250200Y-106107000D03*
%TD*%
D15*
%TO.C,IC5*%
X163575600Y-115858000D03*
X163575600Y-116508000D03*
X163575600Y-117158000D03*
X163575600Y-117808000D03*
X163575600Y-118458000D03*
X163575600Y-119108000D03*
X163575600Y-119758000D03*
X163575600Y-120408000D03*
X169451600Y-120408000D03*
X169451600Y-119758000D03*
X169451600Y-119108000D03*
X169451600Y-118458000D03*
X169451600Y-117808000D03*
X169451600Y-117158000D03*
X169451600Y-116508000D03*
X169451600Y-115858000D03*
D16*
X166513600Y-118133000D03*
%TD*%
D48*
%TO.C,C3*%
X200279000Y-53020000D03*
X200279000Y-51120000D03*
%TD*%
D33*
%TO.C,IC2*%
X191135000Y-64389000D03*
X191135000Y-65659000D03*
X191135000Y-66929000D03*
X191135000Y-68199000D03*
X191135000Y-69469000D03*
X191135000Y-70739000D03*
X191135000Y-72009000D03*
X191135000Y-73279000D03*
X196559000Y-73279000D03*
X196559000Y-72009000D03*
X196559000Y-70739000D03*
X196559000Y-69469000D03*
X196559000Y-68199000D03*
X196559000Y-66929000D03*
X196559000Y-65659000D03*
X196559000Y-64389000D03*
%TD*%
D19*
%TO.C,R10*%
X189072400Y-68097400D03*
X188112400Y-68097400D03*
%TD*%
%TO.C,C18*%
X162585400Y-57048400D03*
X161625400Y-57048400D03*
%TD*%
D10*
%TO.C,D5*%
X134862800Y-58064400D03*
X134162800Y-58064400D03*
X134862800Y-57364400D03*
X134162800Y-57364400D03*
%TD*%
D13*
%TO.C,U2*%
X199875600Y-114452400D03*
X199875600Y-115722400D03*
X199875600Y-116992400D03*
X199875600Y-118262400D03*
X204825600Y-118262400D03*
X204825600Y-116992400D03*
X204825600Y-115722400D03*
X204825600Y-114452400D03*
%TD*%
D48*
%TO.C,C27*%
X143668000Y-62941000D03*
X143668000Y-61041000D03*
%TD*%
D19*
%TO.C,C19*%
X154607200Y-61569600D03*
X153647200Y-61569600D03*
%TD*%
D18*
%TO.C,C51*%
X173287000Y-103115000D03*
X173287000Y-105190000D03*
%TD*%
D34*
%TO.C,R51*%
X188087000Y-93991000D03*
X188087000Y-91991000D03*
%TD*%
D10*
%TO.C,D13*%
X134924800Y-100177600D03*
X134224800Y-100177600D03*
X134924800Y-99477600D03*
X134224800Y-99477600D03*
%TD*%
D49*
%TO.C,R32*%
X187198000Y-77407000D03*
X187198000Y-79057000D03*
%TD*%
D39*
%TO.C,D1*%
X206629000Y-53467000D03*
X206629000Y-51167000D03*
%TD*%
D50*
%TO.C,L1*%
X198374000Y-88435000D03*
X198374000Y-93935000D03*
%TD*%
D51*
%TO.C,R19*%
X212979000Y-62978700D03*
X212979000Y-64173700D03*
%TD*%
D52*
%TO.C,Y2*%
X148356000Y-57897000D03*
X156856000Y-57897000D03*
%TD*%
D44*
%TO.C,T2*%
X209309000Y-67310000D03*
X209309000Y-69850000D03*
X209309000Y-72390000D03*
X218059000Y-72390000D03*
X218059000Y-69850000D03*
X218059000Y-67310000D03*
%TD*%
D47*
%TO.C,R7*%
X202336400Y-53619400D03*
X202336400Y-52069400D03*
%TD*%
D18*
%TO.C,C52*%
X173363200Y-107560000D03*
X173363200Y-109635000D03*
%TD*%
D53*
%TO.C,JP1*%
X209905600Y-123560600D03*
D54*
X209905600Y-122260600D03*
%TD*%
D12*
%TO.C,C1*%
X198374000Y-61793000D03*
X198374000Y-60833000D03*
%TD*%
D19*
%TO.C,R12*%
X189072400Y-69519800D03*
X188112400Y-69519800D03*
%TD*%
D25*
%TO.C,D7*%
X214884000Y-124891800D03*
X214884000Y-126796800D03*
X216814400Y-125844300D03*
%TD*%
D10*
%TO.C,D9*%
X134868400Y-71190600D03*
X134168400Y-71190600D03*
X134868400Y-70490600D03*
X134168400Y-70490600D03*
%TD*%
D28*
%TO.C,C12*%
X198247000Y-64445000D03*
X198247000Y-65405000D03*
%TD*%
D55*
%TO.C,U5*%
X179476800Y-87530300D03*
X179476800Y-85230300D03*
D56*
X173176800Y-85230300D03*
D55*
X179476800Y-82930300D03*
%TD*%
D10*
%TO.C,D11*%
X134924800Y-83794600D03*
X134224800Y-83794600D03*
X134924800Y-83094600D03*
X134224800Y-83094600D03*
%TD*%
D12*
%TO.C,C32*%
X197586600Y-116989800D03*
X197586600Y-116029800D03*
%TD*%
D28*
%TO.C,C30*%
X143335000Y-65446000D03*
X143335000Y-66406000D03*
%TD*%
D20*
%TO.C,R8*%
X202133200Y-58648000D03*
X202133200Y-60198000D03*
%TD*%
D39*
%TO.C,D4*%
X206572000Y-72376000D03*
X206572000Y-74676000D03*
%TD*%
D18*
%TO.C,C58*%
X173617200Y-119541000D03*
X173617200Y-121616000D03*
%TD*%
D22*
%TO.C,R27*%
X212394800Y-128942600D03*
X212394800Y-127292600D03*
%TD*%
D38*
%TO.C,C59*%
X188111600Y-115959600D03*
X188111600Y-119084600D03*
%TD*%
D39*
%TO.C,D2*%
X206502000Y-58660000D03*
X206502000Y-60960000D03*
%TD*%
D57*
%TO.C,D12*%
X189230000Y-77470000D03*
X189230000Y-79045000D03*
%TD*%
D32*
%TO.C,C34*%
X182270400Y-85013800D03*
X182270400Y-82938800D03*
%TD*%
D21*
%TO.C,R52*%
X184912000Y-87705000D03*
X184912000Y-89705000D03*
%TD*%
D14*
%TO.C,C53*%
X187942800Y-110701800D03*
X187942800Y-107576800D03*
%TD*%
%TO.C,C54*%
X180263800Y-110668600D03*
X180263800Y-107543600D03*
%TD*%
D34*
%TO.C,R36*%
X159207200Y-117839200D03*
X159207200Y-115839200D03*
%TD*%
D38*
%TO.C,C61*%
X180348200Y-115946500D03*
X180348200Y-119071500D03*
%TD*%
D19*
%TO.C,C17*%
X162582800Y-62814200D03*
X161622800Y-62814200D03*
%TD*%
D58*
%TO.C,R25*%
X214262200Y-118008400D03*
X215912200Y-118008400D03*
%TD*%
D12*
%TO.C,C9*%
X198374000Y-73223000D03*
X198374000Y-72263000D03*
%TD*%
D59*
%TO.C,D24*%
X210337400Y-92938600D03*
X210337400Y-96938600D03*
%TD*%
D18*
%TO.C,C50*%
X176970000Y-108195000D03*
X176970000Y-110270000D03*
%TD*%
M02*
